:SAMPLES-PER-SECOND 30
:FULLY-SPECIFIED
:DEGREES
788
root  -58.2803 38.3544 3.09965 -176.171 -85.164 178.888
RightUpLeg  -29.622 -6.90656 -6.11696
RightLeg  21.2069 5.98682 2.36375
RightFoot  5.0191 -0.74033 5.42744
RightToes  2.32829e-010 0 -3.6325e-017
Spine  69.7262 -7.36821 6.90398
Spine1  2.08479 -1.71702 -3.18673
HEad  -44.6903 -4.65134 -7.03004
LeftShoulder1  2.67789 -10.1476 -12.5497
LeftArm  -8.09497 -42.9144 -51.7879
LeftForeArm  21.3071 -7.60179 -4.97066
LeftHand  -0.201115 1.82736 6.3417
RightShoulder  1.06548 3.47523 7.80271
RightArm  5.43918 48.8682 56.1347
RightForeArm  -11.2691 2.22224 4.65867
RightHand  -1.02638 7.30778 -9.66456
LeftUpLeg  -31.8114 12.4649 -6.36675
LeftLeg  24.1738 -3.2594 -1.23211
LeftFoot  5.22141 -1.44022 9.63721
LeftToes  -3.54706e-010 1.16038e-010 5.28031e-012
789
root  -57.9819 38.5746 3.32044 -175.39 -82.9806 178.309
RightUpLeg  -29.0279 -7.06358 -5.46243
RightLeg  21.0506 2.38565 0.777714
RightFoot  1.6733 -0.731194 6.46097
RightToes  2.32829e-010 0 -3.6325e-017
Spine  65.067 -5.95102 5.84787
Spine1  2.55082 -0.827226 -4.60804
HEad  -43.8834 -4.29029 -7.95015
LeftShoulder1  2.77032 -9.51247 -14.4024
LeftArm  -5.89001 -35.4313 -53.0687
LeftForeArm  23.562 -6.93631 -6.3405
LeftHand  -0.153177 1.99544 5.02924
RightShoulder  1.03725 2.26822 10.7611
RightArm  8.07987 42.3133 58.7666
RightForeArm  -8.72033 2.13722 5.46446
RightHand  -1.33551 9.50449 -10.7631
LeftUpLeg  -30.8859 15.9943 -7.3601
LeftLeg  20.7547 -4.77392 -1.6666
LeftFoot  6.98037 -1.69909 10.2529
LeftToes  -3.54706e-010 1.16038e-010 5.28031e-012
790
root  -57.6316 38.6509 3.61846 -178.586 -82.2676 -178.683
RightUpLeg  -28.7975 -9.98389 -4.14251
RightLeg  25.9388 0.415602 -0.000253276
RightFoot  -1.6303 -0.49501 5.68631
RightToes  2.32829e-010 0 -3.6325e-017
Spine  60.2242 -5.76564 6.19799
Spine1  3.0542 -0.777571 -4.80114
HEad  -43.4566 -3.1771 -8.69971
LeftShoulder1  2.8022 -8.54784 -16.547
LeftArm  -4.62159 -27.8399 -53.7102
LeftForeArm  23.6587 -6.90759 -7.37032
LeftHand  -0.10797 3.1225 4.804
RightShoulder  1.12081 1.91692 13.7923
RightArm  9.85362 36.7525 57.5042
RightForeArm  -6.21501 1.92409 6.42514
RightHand  -1.21099 9.21272 -9.9572
LeftUpLeg  -29.9822 13.4851 -6.33198
LeftLeg  18.6491 -1.83764 -0.557791
LeftFoot  8.27997 -1.72181 9.63999
LeftToes  -3.54706e-010 1.16038e-010 5.28031e-012
791
root  -57.2692 38.7114 3.79794 -178.453 -80.7841 -179.461
RightUpLeg  -28.0406 -8.80976 -4.44684
RightLeg  32.7497 -0.848339 -0.844249
RightFoot  -3.78408 -0.336096 4.69796
RightToes  2.32829e-010 0 -3.6325e-017
Spine  55.8236 -4.97163 5.60063
Spine1  3.4267 -0.342279 -5.6017
HEad  -41.7535 -2.10454 -9.46132
LeftShoulder1  2.8327 -7.70696 -18.7376
LeftArm  -4.22811 -20.0727 -52.8666
LeftForeArm  23.7733 -7.3431 -7.94307
LeftHand  -0.0475839 4.49265 2.03589
RightShoulder  1.15266 1.57739 16.0096
RightArm  10.5294 30.3225 56.6158
RightForeArm  -4.53634 2.90049 6.83936
RightHand  -0.999333 8.13298 -8.92636
LeftUpLeg  -28.4852 12.3921 -5.05683
LeftLeg  16.5113 0.937057 -0.883535
LeftFoot  9.40173 -1.75389 9.24427
LeftToes  -3.54706e-010 1.16038e-010 5.28031e-012
792
root  -56.8936 38.7118 3.82425 -177.433 -78.5673 178.806
RightUpLeg  -26.9388 -5.21325 -5.11627
RightLeg  40.0729 -2.00913 -2.08108
RightFoot  -5.2686 -0.234022 3.74436
RightToes  2.32829e-010 0 -3.6325e-017
Spine  51.78 -3.25724 4.28104
Spine1  3.68093 0.667522 -6.00926
HEad  -39.9308 -1.1382 -10.0069
LeftShoulder1  2.85452 -6.97637 -20.8397
LeftArm  -2.93103 -13.1121 -51.063
LeftForeArm  23.4532 -7.48546 -8.76973
LeftHand  -0.0324511 5.97616 -0.815574
RightShoulder  1.05418 0.832801 17.8917
RightArm  10.9955 23.967 55.825
RightForeArm  -3.52459 4.48457 7.09431
RightHand  -1.00758 7.99018 -9.0734
LeftUpLeg  -27.1785 10.8652 -3.17619
LeftLeg  15.0659 4.93482 -1.34819
LeftFoot  10.2611 -1.79204 9.04484
LeftToes  -3.54706e-010 1.16038e-010 5.28031e-012
793
root  -56.4678 38.6536 3.85841 -176.917 -77.993 177.466
RightUpLeg  -24.8628 -3.36961 -5.82155
RightLeg  46.5636 -2.21924 -2.81396
RightFoot  -6.44914 -0.173393 3.02782
RightToes  2.32829e-010 0 -3.6325e-017
Spine  47.879 -2.92275 4.03567
Spine1  4.22262 0.868997 -6.95202
HEad  -37.8225 -0.433468 -9.86979
LeftShoulder1  2.7667 -6.37351 -21.6641
LeftArm  -1.74709 -6.32697 -49.6585
LeftForeArm  22.7039 -8.27535 -9.20932
LeftHand  -0.0393571 6.17589 -0.123555
RightShoulder  0.886659 -0.234329 20.8549
RightArm  12.565 19.4509 53.8321
RightForeArm  -3.85606 5.72256 7.78528
RightHand  -1.09807 8.97095 -9.23495
LeftUpLeg  -26.1714 8.96434 -2.13576
LeftLeg  13.7506 7.60674 -1.65943
LeftFoot  11.2712 -1.7989 8.6327
LeftToes  -3.54706e-010 1.16038e-010 5.28031e-012
794
root  -55.9949 38.589 3.83941 -176.929 -77.8013 175.059
RightUpLeg  -20.1959 -2.05051 -6.63336
RightLeg  51.3597 -1.71086 -2.65535
RightFoot  -7.54719 -0.127613 2.30686
RightToes  2.32829e-010 0 -3.6325e-017
Spine  45.6819 -2.40941 3.37788
Spine1  5.12852 0.83004 -6.74892
HEad  -35.6629 0.32124 -9.79453
LeftShoulder1  2.60507 -5.57332 -22.421
LeftArm  -1.69241 -0.139634 -48.6801
LeftForeArm  23.1794 -9.75502 -8.74952
LeftHand  -0.0622414 6.83747 -1.49111
RightShoulder  0.713566 -0.969905 22.0479
RightArm  12.7212 15.0597 52.9238
RightForeArm  -4.03576 7.18887 7.7732
RightHand  -1.1717 9.78317 -9.29321
LeftUpLeg  -23.4977 7.88893 -1.54236
LeftLeg  12.2834 8.98238 -2.0443
LeftFoot  12.3114 -1.86381 8.52226
LeftToes  -3.54706e-010 1.16038e-010 5.28031e-012
795
root  -55.4498 38.4344 3.80168 -177.015 -78.2943 173.366
RightUpLeg  -15.5998 -1.40198 -6.97009
RightLeg  54.5319 -0.935792 -1.81726
RightFoot  -8.86178 -0.110125 2.32805
RightToes  2.32829e-010 0 -3.6325e-017
Spine  42.9479 -2.20914 3.19831
Spine1  6.09042 0.632777 -6.37047
HEad  -33.5026 0.765445 -9.6058
LeftShoulder1  2.43113 -4.56171 -23.9055
LeftArm  1.10979 4.2412 -46.3187
LeftForeArm  20.7645 -10.6545 -9.25848
LeftHand  -0.013175 6.15657 2.31474
RightShoulder  0.523844 -1.6825 22.9301
RightArm  13.0898 11.2949 52.1345
RightForeArm  -4.75472 8.74955 7.72607
RightHand  -1.43968 10.1583 -11.0944
LeftUpLeg  -22.1722 7.40916 -1.52674
LeftLeg  11.562 9.03669 -2.13662
LeftFoot  13.2523 -1.92195 8.42626
LeftToes  -3.54706e-010 1.16038e-010 5.28031e-012
796
root  -54.8528 38.2493 3.72551 -177.247 -78.7042 171.917
RightUpLeg  -10.6223 -0.552677 -6.91958
RightLeg  55.7471 0.276702 0.0151035
RightFoot  -9.83957 -0.110275 3.20262
RightToes  2.32829e-010 0 -3.6325e-017
Spine  40.3467 -2.02089 3.32488
Spine1  6.83206 0.699636 -6.5243
HEad  -31.1604 0.801551 -8.77447
LeftShoulder1  2.30289 -4.02502 -24.3845
LeftArm  2.50658 8.00817 -44.5685
LeftForeArm  19.3876 -10.3099 -9.69888
LeftHand  -0.024574 5.40544 3.05903
RightShoulder  0.298945 -2.506 24.4217
RightArm  13.6291 8.41264 50.9212
RightForeArm  -4.47986 10.0342 7.54338
RightHand  -1.3562 10.1764 -10.4469
LeftUpLeg  -21.1834 7.20985 -1.4957
LeftLeg  11.1245 8.83457 -2.12773
LeftFoot  14.2432 -1.95036 8.18903
LeftToes  -3.54706e-010 1.16038e-010 5.28031e-012
797
root  -54.147 38.0147 3.64078 -176.217 -78.6267 169.393
RightUpLeg  -5.86764 0.980715 -6.80323
RightLeg  55.4491 2.23172 3.0614
RightFoot  -11.3556 -0.0737847 4.93282
RightToes  2.32829e-010 0 -3.6325e-017
Spine  37.6648 -1.45412 2.94661
Spine1  7.67685 0.946188 -6.38713
HEad  -29.6168 1.38129 -8.10448
LeftShoulder1  2.15295 -3.44738 -24.7738
LeftArm  3.52998 11.7769 -43.3393
LeftForeArm  17.8321 -11.212 -9.49025
LeftHand  -0.0305654 5.42933 2.62564
RightShoulder  0.174836 -2.9164 24.933
RightArm  13.5109 6.30455 50.4349
RightForeArm  -5.92054 10.8406 7.31526
RightHand  -1.55405 11.1667 -11.237
LeftUpLeg  -20.469 6.5727 -1.46003
LeftLeg  10.4626 9.5921 -1.99159
LeftFoot  15.5348 -1.9341 7.68074
LeftToes  -3.54706e-010 1.16038e-010 5.28031e-012
